<?xml version="1.0" ?><svg data-name="Layer 1" id="Layer_1" viewBox="0 0 64 64" xmlns="http://www.w3.org/2000/svg"><defs><style>.cls-1{fill:#72d849;}.cls-2{opacity:0.15;}.cls-3{fill:#bf6830;}</style></defs><title/><path class="cls-1" d="M39.4,12.22A26.83,26.83,0,0,0,32,14.73l-.44.21A27.15,27.15,0,0,0,25,19.78c-.46.46-.89.93-1.31,1.41a27.47,27.47,0,0,0-5.83,24.93A27.57,27.57,0,0,0,32,46.05a27.19,27.19,0,0,0,10.83-5.78h0c.46-.4.92-.82,1.37-1.27a27.15,27.15,0,0,0,4.84-6.54,26.83,26.83,0,0,0,2.72-7.84,27.7,27.7,0,0,0-.42-12A27.7,27.7,0,0,0,39.4,12.22Z"/><g class="cls-2"><path d="M39.4,24.6V12.22A26.83,26.83,0,0,0,32,14.73V32Z"/></g><g class="cls-2"><path d="M32,32v.44H49.06a26.83,26.83,0,0,0,2.72-7.84H39.4Z"/></g><g class="cls-2"><path d="M51.36,12.64a27.7,27.7,0,0,0-12-.42V24.6Z"/></g><g class="cls-2"><path d="M51.78,24.6a27.7,27.7,0,0,0-.42-12l-12,12Z"/></g><g class="cls-2"><path d="M32,40.26v5.79a27.19,27.19,0,0,0,10.83-5.78Z"/></g><g class="cls-2"><path d="M32,40.26H42.84c.46-.4.92-.82,1.37-1.27a27.15,27.15,0,0,0,4.84-6.54H32Z"/></g><path class="cls-3" d="M23.74,41.26a1,1,0,0,1-1-1V21.19a1,1,0,0,1,.25-.66c.44-.5.88-1,1.36-1.46a28.16,28.16,0,0,1,6.78-5,1,1,0,0,1,1.47.88v17.5a1,1,0,0,1-.29.71L24.45,41A1,1,0,0,1,23.74,41.26Zm1-19.69V37.88L30.56,32V16.66a26.33,26.33,0,0,0-4.84,3.83C25.37,20.85,25,21.21,24.7,21.57Zm6.86,10.87h0Z"/><path class="cls-3" d="M31.56,33.44a1,1,0,0,1-1-1V14.94a1,1,0,0,1,.53-.88,27.73,27.73,0,0,1,8.13-2.83,1,1,0,0,1,1.18,1V24.6a1,1,0,0,1-.29.71l-7.84,7.84A1,1,0,0,1,31.56,33.44Zm1-17.89V30l5.84-5.84V13.45A25.75,25.75,0,0,0,32.56,15.55ZM39.4,24.6h0Z"/><path class="cls-3" d="M49.06,33.44H31.56a1,1,0,0,1-.71-1.71l7.84-7.84a1,1,0,0,1,.71-.29H51.78a1,1,0,0,1,1,1.18,27.73,27.73,0,0,1-2.83,8.13A1,1,0,0,1,49.06,33.44ZM34,31.44H48.45a25.75,25.75,0,0,0,2.11-5.84H39.81Z"/><path class="cls-3" d="M43.57,12.78a1,1,0,0,1-.09-2h.41a1,1,0,0,1,1,1,1,1,0,0,1-1.06,1h-.26Z"/><path class="cls-3" d="M39.4,25.6a1,1,0,0,1-1-1V12.22a1,1,0,0,1,.82-1c.4-.07.78-.14,1.18-.19a1,1,0,1,1,.26,2l-.26,0v9.12l9-9c-.82-.15-1.66-.27-2.52-.35a1,1,0,1,1,.19-2,28.63,28.63,0,0,1,4.58.8,1,1,0,0,1,.45,1.67l-12,12A1,1,0,0,1,39.4,25.6Z"/><path class="cls-3" d="M51.78,25.6H39.4a1,1,0,0,1-.71-1.71l12-12a1,1,0,0,1,1.68.46,28.88,28.88,0,0,1,.44,12.39A1,1,0,0,1,51.78,25.6Zm-10-2h9.12a26.91,26.91,0,0,0-.16-9Z"/><path class="cls-3" d="M17.62,47.1a1,1,0,0,1-.45-1.67L23,39.55a1,1,0,0,1,.71-.29H42.83A1,1,0,0,1,43.49,41a28.09,28.09,0,0,1-9.83,5.59,1,1,0,1,1-.62-1.9,26,26,0,0,0,6.9-3.44H24.15l-4.29,4.29a26.58,26.58,0,0,0,6.73.4,1,1,0,0,1,.13,2q-1,.07-2,.07"/><path class="cls-3" d="M29.95,47.53a1,1,0,0,1-.09-2l.16,0a1,1,0,0,1,.53,1.93,3,3,0,0,1-.52.1Z"/><path class="cls-3" d="M17.87,47.13a1,1,0,0,1-1-.75,28.46,28.46,0,0,1,6-25.84,1,1,0,0,1,1.75.66V40.06a1,1,0,0,1-.25.91l-5.87,5.87A1,1,0,0,1,17.87,47.13Zm4.83-23a26.47,26.47,0,0,0-4.25,20l4.25-4.25Z"/><path class="cls-3" d="M42.83,41.27H23.74A1,1,0,0,1,23,39.55l7.82-7.82a1,1,0,0,1,.71-.29h17.5a1,1,0,0,1,.88,1.47,28.16,28.16,0,0,1-5,6.78h0c-.47.47-.94.9-1.42,1.32A1,1,0,0,1,42.83,41.27Zm-16.68-2h16.3c.37-.33.71-.65,1.05-1h0a26.33,26.33,0,0,0,3.83-4.84H32Z"/><path class="cls-3" d="M11.76,53.24a1,1,0,0,1-.71-1.71l6.11-6.11a1,1,0,0,1,1.41,1.41l-6.11,6.11A1,1,0,0,1,11.76,53.24Z"/><path class="cls-3" d="M42.84,41.26a1,1,0,0,1-.71-1.7h0a1,1,0,1,1,.7,1.71Z"/></svg>